# 3ds Max Wavefront OBJ Exporter v0.97b - (c)2007 guruware
# File Created: 17.07.2015 18:56:29

#
# object col_Fountain
#

v  -120.6226 125.1443 -264.5573
v  0.0001 125.1443 -286.6891
v  0.0000 19.9183 -280.7813
v  -116.3545 19.9183 -260.6273
v  0.0001 125.1443 -329.5857
v  -157.6807 125.1443 -297.6880
v  -167.8024 0.0001 -305.5099
v  0.0000 0.0000 -340.2201
v  -193.8588 125.1443 -193.8589
v  -164.9533 125.1443 -164.9535
v  -201.2978 0.0001 -201.2978
v  -160.7766 19.9183 -160.7767
v  -297.6880 125.1444 -157.6811
v  -264.5571 125.1444 -120.6228
v  -305.5099 0.0001 -167.8028
v  -260.6272 19.9184 -116.3547
v  0.0000 125.1443 329.5857
v  -157.6810 125.1444 297.6880
v  -120.6227 125.1444 263.6675
v  0.0000 125.1443 285.7995
v  -0.0000 0.0001 340.2201
v  -167.8028 0.0001 305.5099
v  -0.0000 19.9183 280.7813
v  -116.3547 19.9184 260.6272
v  -193.8588 125.1444 193.8588
v  -297.6880 125.1444 157.6807
v  -264.5573 125.1444 119.7330
v  -164.9534 125.1444 164.0637
v  -201.2978 0.0001 201.2979
v  -305.5099 0.0002 167.8024
v  -160.7767 19.9184 160.7767
v  -260.6273 19.9184 116.3546
v  -329.5857 125.1444 -0.0001
v  -286.6891 125.1444 -0.4449
v  -340.2201 0.0002 -0.0001
v  -280.7813 19.9184 -0.0000
v  -71.2828 439.6255 -46.3341
v  -71.2829 439.6255 46.3225
v  -72.1316 19.9539 46.8855
v  -72.1316 19.9538 -46.8855
v  -46.8855 19.9538 -72.1316
v  -46.3111 439.6255 -71.2831
v  -46.3225 439.6255 71.2830
v  46.3228 439.6255 71.2830
v  46.8855 19.9538 72.1316
v  -46.8855 19.9538 72.1316
v  71.2832 439.6255 46.3226
v  0.0000 19.9183 0.0000
v  120.6227 125.1442 -264.5573
v  116.3546 19.9182 -260.6273
v  157.6808 125.1442 -297.6880
v  167.8024 -0.0001 -305.5099
v  193.8589 125.1442 -193.8588
v  164.9534 125.1442 -164.9535
v  201.2979 -0.0001 -201.2978
v  160.7767 19.9182 -160.7767
v  264.5573 125.1442 -120.6227
v  275.1578 125.1442 -157.6834
v  297.6881 125.1442 -157.6810
v  276.5859 -0.0001 -167.8058
v  305.5099 -0.0001 -167.8028
v  260.6272 19.9182 -116.3546
v  120.6228 125.1443 263.6676
v  157.6811 125.1443 297.6880
v  167.8028 0.0000 305.5099
v  116.3546 19.9183 260.6272
v  193.8589 125.1442 193.8588
v  164.9535 125.1442 164.0638
v  264.5573 125.1442 119.7330
v  297.6880 125.1442 157.6808
v  305.5099 -0.0001 167.8024
v  201.2978 -0.0000 201.2979
v  160.7767 19.9182 160.7767
v  260.6273 19.9182 116.3546
v  329.5858 125.1442 -0.0000
v  286.6891 125.1442 -0.4448
v  340.2201 -0.0001 0.0000
v  280.7813 19.9182 0.0000
v  71.2832 439.6255 -46.3341
v  72.1316 19.9538 -46.8855
v  72.1316 19.9538 46.8855
v  46.3115 439.6255 -71.2831
v  46.8855 19.9538 -72.1316
# 83 vertices

vn -0.1754 -0.0495 -0.9832
vn -0.0000 -1.0000 -0.0000
vn 0.1998 -0.0801 0.9765
vn 0.9448 -0.0856 0.3164
vn -0.9124 -0.0522 -0.4060
vn 0.3164 -0.0856 0.9448
vn -0.4060 -0.0523 -0.9124
vn -0.0000 -1.0000 0.0000
vn 0.1998 -0.0801 -0.9765
vn -0.1755 -0.0412 0.9836
vn 0.3164 -0.0856 -0.9448
vn -0.4061 -0.0446 0.9127
vn 0.9448 -0.0856 -0.3164
vn -0.9125 -0.0488 0.4061
vn 0.9765 -0.0801 0.1998
vn -0.9832 -0.0499 -0.1758
vn -0.9832 -0.0484 0.1758
vn 0.9765 -0.0801 -0.1998
vn 1.0000 -0.0020 0.0000
vn 0.7069 -0.0024 0.7073
vn 0.0000 -0.0020 -1.0000
vn 0.7071 -0.0024 -0.7071
vn 0.1754 -0.0495 -0.9832
vn -0.1998 -0.0801 0.9765
vn -0.9448 -0.0856 0.3164
vn 0.9124 -0.0523 -0.4060
vn -0.0001 -0.0806 0.9967
vn 0.4060 -0.0523 -0.9124
vn -0.4052 -0.0783 0.9109
vn -0.1998 -0.0801 -0.9765
vn 0.1755 -0.0412 0.9836
vn -0.3164 -0.0856 -0.9448
vn 0.4061 -0.0446 0.9127
vn -0.9448 -0.0856 -0.3164
vn 0.9125 -0.0488 0.4061
vn -0.9765 -0.0801 0.1998
vn 0.9832 -0.0499 -0.1758
vn 0.9832 -0.0484 0.1758
vn -0.9765 -0.0801 -0.1998
vn -1.0000 -0.0020 0.0000
vn -0.7069 -0.0024 0.7073
vn -0.7071 -0.0024 -0.7071
vn -0.0000 -0.0020 1.0000
# 43 vertex normals

vt 0.0087 1.0106 0.0000
vt 0.1708 1.0091 0.0000
vt 0.1704 0.8791 0.0000
vt 0.0085 0.8791 0.0000
vt 0.6740 0.2882 0.0000
vt 0.6740 0.3423 0.0000
vt 0.8982 0.3423 0.0000
vt 0.9507 0.2882 0.0000
vt 0.9671 0.0089 0.0000
vt 0.6786 0.0106 0.0000
vt 0.6824 0.2349 0.0000
vt 0.9573 0.2333 0.0000
vt 0.5712 0.6816 0.0000
vt 0.3679 0.6816 0.0000
vt 0.4038 0.7370 0.0000
vt 0.5712 0.7370 0.0000
vt 0.5582 0.4013 0.0000
vt 0.3568 0.3969 0.0000
vt 0.3600 0.6234 0.0000
vt 0.5525 0.6274 0.0000
vt 0.1702 1.0095 0.0000
vt 0.3215 1.0107 0.0000
vt 0.3200 0.8803 0.0000
vt 0.7758 0.6816 0.0000
vt 0.7344 0.7370 0.0000
vt 0.7477 0.3969 0.0000
vt 0.5625 0.6274 0.0000
vt 0.7437 0.6234 0.0000
vt 0.0093 1.0105 0.0000
vt 0.1708 1.0096 0.0000
vt 0.3979 0.2882 0.0000
vt 0.4504 0.3423 0.0000
vt 0.6821 0.0106 0.0000
vt 0.3880 0.0089 0.0000
vt 0.3999 0.2333 0.0000
vt 0.6802 0.2349 0.0000
vt 0.1701 1.0091 0.0000
vt 0.3321 1.0106 0.0000
vt 0.3324 0.8791 0.0000
vt 0.5422 0.3985 0.0000
vt 0.3474 0.4005 0.0000
vt 0.3489 0.6279 0.0000
vt 0.5359 0.6255 0.0000
vt 0.3215 1.0105 0.0000
vt 0.3200 0.8801 0.0000
vt 0.7625 0.4005 0.0000
vt 0.5661 0.3985 0.0000
vt 0.5713 0.6255 0.0000
vt 0.7618 0.6278 0.0000
vt 0.9719 0.0112 0.0000
vt 0.6775 0.0087 0.0000
vt 0.6770 0.2331 0.0000
vt 0.9600 0.2354 0.0000
vt 0.2145 0.8596 0.0000
vt 0.3414 0.8596 0.0000
vt 0.3655 0.0056 0.0000
vt 0.2145 0.0056 0.0000
vt 0.1646 0.0056 0.0000
vt 0.1646 0.8596 0.0000
vt 0.0380 0.8596 0.0000
vt 0.0064 0.0056 0.0000
vt 0.9515 0.4084 0.0000
vt 0.9908 0.4478 0.0000
vt 0.6979 0.8601 0.0000
vt 0.9926 0.9917 0.0000
vt 0.8108 0.8099 0.0000
vt 0.8611 0.6970 0.0000
vt 0.9926 0.6741 0.0000
vt 0.6752 0.9917 0.0000
vt 0.6748 0.0106 0.0000
vt 0.6788 0.2349 0.0000
vt 0.7344 0.6816 0.0000
vt 0.7791 0.6292 0.0000
vt 0.7339 0.6292 0.0000
vt 0.7151 0.4013 0.0000
vt 0.7528 0.4013 0.0000
vt 0.7040 0.3993 0.0000
vt 0.7097 0.6252 0.0000
vt 0.5473 0.3986 0.0000
vt 0.5414 0.6255 0.0000
vt 0.8053 0.4084 0.0000
vt 0.7660 0.4478 0.0000
# 82 texture coords

g col_Fountain
s off
f 1/1/1 2/2/1 3/3/1 4/4/1 
f 5/5/2 2/6/2 1/7/2 6/8/2 
f 7/9/3 8/10/3 5/11/3 6/12/3 
f 9/13/2 6/14/2 1/15/2 10/16/2 
f 11/17/4 7/18/4 6/19/4 9/20/4 
f 12/3/5 10/21/5 1/22/5 4/23/5 
f 13/24/2 9/13/2 10/16/2 14/25/2 
f 15/26/6 11/17/6 9/27/6 13/28/6 
f 12/3/7 16/4/7 14/29/7 10/30/7 
f 17/5/8 18/31/8 19/32/8 20/6/8 
f 21/33/9 22/34/9 18/35/9 17/36/9 
f 23/3/10 20/37/10 19/38/10 24/39/10 
f 25/13/8 26/14/8 27/15/8 28/16/8 
f 29/40/11 30/41/11 26/42/11 25/43/11 
f 31/3/12 28/21/12 27/44/12 32/45/12 
f 18/24/8 25/13/8 28/16/8 19/25/8 
f 22/46/13 29/47/13 25/48/13 18/49/13 
f 28/30/14 31/3/14 24/4/14 19/29/14 
f 33/5/8 13/31/8 14/32/8 34/6/8 
f 35/33/15 15/34/15 13/35/15 33/36/15 
f 36/3/16 34/37/16 14/38/16 16/39/16 
f 27/1/17 34/2/17 36/3/17 32/4/17 
f 33/5/8 34/6/8 27/7/8 26/8/8 
f 30/50/18 35/51/18 33/52/18 26/53/18 
f 37/54/19 38/55/19 39/56/19 40/57/19 
f 37/54/20 40/57/20 41/58/20 42/59/20 
f 43/60/21 44/60/21 45/61/21 46/61/21 
f 38/59/22 43/54/22 46/57/22 39/58/22 
f 38/62/2 47/62/2 44/63/2 43/63/2 
f 4/64/8 48/65/8 12/66/8 
f 16/67/8 48/65/8 36/68/8 
f 16/67/8 12/66/8 48/65/8 
f 4/64/8 3/69/8 48/65/8 
f 32/64/8 48/65/8 31/66/8 
f 24/67/8 48/65/8 23/68/8 
f 24/67/8 31/66/8 48/65/8 
f 32/64/8 36/69/8 48/65/8 
f 3/3/23 2/2/23 49/1/23 50/4/23 
f 5/5/2 51/8/2 49/7/2 2/6/2 
f 8/70/24 52/9/24 51/12/24 5/71/24 
f 53/13/2 54/16/2 49/15/2 51/14/2 
f 52/41/25 55/40/25 53/43/25 51/42/25 
f 49/22/26 54/21/26 56/3/26 50/23/26 
f 57/25/2 58/72/2 59/24/2 
f 59/73/27 58/74/27 60/75/27 61/76/27 
f 57/29/28 62/4/28 56/3/28 54/30/28 
f 58/72/2 57/25/2 54/16/2 53/13/2 
f 60/77/29 58/78/29 53/27/29 55/17/29 
f 17/5/8 20/6/8 63/32/8 64/31/8 
f 65/34/30 21/33/30 17/36/30 64/35/30 
f 63/38/31 20/37/31 23/3/31 66/39/31 
f 67/13/8 68/16/8 69/15/8 70/14/8 
f 71/41/32 72/79/32 67/80/32 70/42/32 
f 69/44/33 68/21/33 73/3/33 74/45/33 
f 68/16/8 67/13/8 64/24/8 63/25/8 
f 72/47/34 65/46/34 64/49/34 67/48/34 
f 66/4/35 73/3/35 68/30/35 63/29/35 
f 75/5/8 76/6/8 57/32/8 59/31/8 
f 61/34/36 77/33/36 75/36/36 59/35/36 
f 57/38/37 76/37/37 78/3/37 62/39/37 
f 78/3/38 76/2/38 69/1/38 74/4/38 
f 75/5/8 70/8/8 69/7/8 76/6/8 
f 77/51/39 71/50/39 70/53/39 75/52/39 
f 79/54/40 80/57/40 81/56/40 47/55/40 
f 79/54/41 82/59/41 83/58/41 80/57/41 
f 47/59/42 81/58/42 45/57/42 44/54/42 
f 38/62/8 37/81/8 79/81/8 47/62/8 
f 79/81/2 37/81/2 42/82/2 82/82/2 
f 50/64/8 56/66/8 48/65/8 
f 62/67/8 78/68/8 48/65/8 
f 56/66/8 62/67/8 48/65/8 
f 3/69/8 50/64/8 48/65/8 
f 74/64/8 73/66/8 48/65/8 
f 66/67/8 23/68/8 48/65/8 
f 73/66/8 66/67/8 48/65/8 
f 78/69/8 74/64/8 48/65/8 
f 83/58/43 82/59/43 42/59/43 41/58/43 
# 60 polygons - 17 triangles

